<?xml version="1.0" encoding="UTF-8"?>
<!DOCTYPE svg PUBLIC "-//W3C//DTD SVG 1.1//EN" "http://www.w3.org/Graphics/SVG/1.1/DTD/svg11.dtd">
<svg version="1.1" xmlns="http://www.w3.org/2000/svg" xmlns:xlink="http://www.w3.org/1999/xlink" x="0" y="0" width="300" height="160" viewBox="0, 0, 300, 160">
  <g id="Image">
    <g>
      <path d="M79.823,27.489 C85.14,24.624 90.814,22.482 96.697,21.118 C101.328,20.04 106.062,19.469 110.817,19.414 C111.958,19.414 113.099,19.414 114.24,19.414 C114.787,19.414 115.159,19.125 115.167,18.721 C115.167,18.19 114.771,18.099 114.375,18.012 C113.559,17.826 112.734,17.655 111.914,17.481 C105.651,16.154 99.265,15.49 92.862,15.5 C90.192,15.5 87.513,15.678 84.847,15.865 C80.101,16.214 75.392,16.953 70.767,18.071 C66.517,19.076 62.341,20.369 58.267,21.942 C53.581,23.742 49.04,25.897 44.682,28.388 C41.41,30.261 38.242,32.311 35.193,34.529 C31.478,37.234 27.952,40.19 24.639,43.376 C22.134,45.779 19.754,48.309 17.508,50.955 C14.268,54.733 11.321,58.753 8.693,62.979 C7.211,65.392 5.816,67.864 4.449,70.348 C3.72,71.671 2.928,72.99 2.675,74.528 L2.512,75.506 L2.512,75.902 C2.532,76.073 2.564,76.243 2.607,76.409 C2.778,77.11 3.019,77.792 3.324,78.446 C4.041,79.702 5.25,80.367 6.585,80.823 C9.465,81.841 12.337,82.875 15.214,83.905 Q20.8,85.886 26.386,87.903 C29.54,89.002 32.997,87.399 34.195,84.282 C36.015,79.583 38.091,74.989 40.415,70.518 C43.172,65.131 46.297,59.941 49.769,54.984 C52.521,51.048 55.556,47.318 58.849,43.823 C61.171,41.351 63.626,39.008 66.203,36.803 C70.4,33.224 74.966,30.102 79.823,27.489 z M103.254,24.422 C102.754,24.4 102.323,24.769 102.267,25.266 C102.194,25.794 102.557,26.284 103.083,26.367 C103.765,26.573 104.446,26.764 105.12,27.013 C108.8,28.281 111.792,30.543 114.347,33.431 C116.432,35.843 118.227,38.49 119.695,41.319 C120.307,42.518 121.404,43.396 122.706,43.732 C127.064,44.976 131.395,46.264 135.737,47.536 Q140.337,48.883 144.94,50.222 C145.364,50.382 145.838,50.344 146.231,50.119 C146.625,49.893 146.897,49.504 146.973,49.057 C147.097,48.477 146.971,47.871 146.624,47.389 C143.795,42.513 140.165,38.149 135.887,34.477 C132.896,31.916 129.562,29.782 125.983,28.138 C120.267,25.541 114.064,24.191 107.786,24.177 C106.285,24.24 104.767,24.319 103.254,24.422 z" fill="#DB0F10" fill-opacity="0.83"/>
      <path d="M79.823,27.489 C85.14,24.624 90.814,22.482 96.697,21.118 C101.328,20.04 106.062,19.469 110.817,19.414 C111.958,19.414 113.099,19.414 114.24,19.414 C114.787,19.414 115.159,19.125 115.167,18.721 C115.167,18.19 114.771,18.099 114.375,18.012 C113.559,17.826 112.734,17.655 111.914,17.481 C105.651,16.154 99.265,15.49 92.862,15.5 C90.192,15.5 87.513,15.678 84.847,15.865 C80.101,16.214 75.392,16.953 70.767,18.071 C66.517,19.076 62.341,20.369 58.267,21.942 C53.581,23.742 49.04,25.897 44.682,28.388 C41.41,30.261 38.242,32.311 35.193,34.529 C31.478,37.234 27.952,40.19 24.639,43.376 C22.134,45.779 19.754,48.309 17.508,50.955 C14.268,54.733 11.321,58.753 8.693,62.979 C7.211,65.392 5.816,67.864 4.449,70.348 C3.72,71.671 2.928,72.99 2.675,74.528 L2.512,75.506 L2.512,75.902 C2.532,76.073 2.564,76.243 2.607,76.409 C2.778,77.11 3.019,77.792 3.324,78.446 C4.041,79.702 5.25,80.367 6.585,80.823 C9.465,81.841 12.337,82.875 15.214,83.905 Q20.8,85.886 26.386,87.903 C29.54,89.002 32.997,87.399 34.195,84.282 C36.015,79.583 38.091,74.989 40.415,70.518 C43.172,65.131 46.297,59.941 49.769,54.984 C52.521,51.048 55.556,47.318 58.849,43.823 C61.171,41.351 63.626,39.008 66.203,36.803 C70.4,33.224 74.966,30.102 79.823,27.489 z M103.254,24.422 C102.754,24.4 102.323,24.769 102.267,25.266 C102.194,25.794 102.557,26.284 103.083,26.367 C103.765,26.573 104.446,26.764 105.12,27.013 C108.8,28.281 111.792,30.543 114.347,33.431 C116.432,35.843 118.227,38.49 119.695,41.319 C120.307,42.518 121.404,43.396 122.706,43.732 C127.064,44.976 131.395,46.264 135.737,47.536 Q140.337,48.883 144.94,50.222 C145.364,50.382 145.838,50.344 146.231,50.119 C146.625,49.893 146.897,49.504 146.973,49.057 C147.097,48.477 146.971,47.871 146.624,47.389 C143.795,42.513 140.165,38.149 135.887,34.477 C132.896,31.916 129.562,29.782 125.983,28.138 C120.267,25.541 114.064,24.191 107.786,24.177 C106.285,24.24 104.767,24.319 103.254,24.422 z" fill-opacity="0" stroke="#C80505" stroke-width="0.5"/>
    </g>
    <g>
      <path d="M166.144,117.197 C164.955,117.197 163.799,117.197 162.626,117.197 C162.417,117.162 162.203,117.213 162.032,117.337 C161.861,117.462 161.747,117.649 161.715,117.858 C160.316,122.113 158.894,126.356 157.472,130.603 C157.38,130.869 157.246,131.122 157.135,131.396 L156.98,131.396 C156.885,131.186 156.774,131 156.691,130.77 Q154.262,124.328 151.854,117.882 C151.759,117.455 151.353,117.171 150.919,117.228 C149.73,117.26 148.51,117.228 147.305,117.228 C146.477,117.228 146.458,117.252 146.775,118.021 Q149.294,124.043 151.822,130.057 C152.492,131.641 153.165,133.226 153.862,134.811 C154.117,135.47 154.599,136.017 155.221,136.352 C155.681,136.574 155.665,136.82 155.467,137.208 C154.416,139.442 152.538,141.179 150.229,142.053 C149.833,142.2 149.766,142.354 150.023,142.699 C150.709,143.626 151.374,144.565 152.048,145.5 L152.444,145.5 C153.263,145.144 154.057,144.734 154.821,144.272 C156.929,142.818 158.224,140.706 159.151,138.392 C159.987,136.309 160.704,134.177 161.465,132.054 Q164.024,124.954 166.572,117.85 C166.762,117.284 166.703,117.201 166.144,117.197 z M298.469,82.729 C298.514,82.587 298.476,82.431 298.37,82.327 C298.263,82.222 298.108,82.186 297.966,82.233 C296.889,82.233 295.811,82.233 294.733,82.233 C294.06,82.233 294.052,82.233 294.052,82.931 C294.052,85.371 294.052,87.808 294.052,90.248 C294.052,91.563 293.386,92.229 292.071,92.229 Q280.808,92.229 269.54,92.229 C267.654,92.229 266.513,91.084 266.509,89.206 C266.509,87.415 266.509,85.641 266.509,83.838 C266.549,83.683 266.505,83.518 266.394,83.403 C266.282,83.288 266.119,83.24 265.963,83.275 C264.901,83.275 263.839,83.275 262.793,83.275 C262.132,83.275 262.104,83.307 262.104,83.981 C262.104,85.882 262.104,87.78 262.104,89.682 C262.104,91.401 261.284,92.221 259.604,92.221 Q248.602,92.221 237.596,92.221 C235.892,92.221 234.823,91.266 234.62,89.579 C234.596,89.343 234.587,89.106 234.593,88.869 Q234.593,82.645 234.593,76.421 C234.593,75.807 234.565,75.78 233.947,75.78 L230.904,75.78 C230.171,75.78 230.171,75.78 230.171,76.524 Q230.171,83.259 230.171,89.971 C230.176,90.208 230.164,90.445 230.136,90.68 C229.993,91.69 229.438,92.217 228.416,92.221 C224.122,92.221 219.831,92.241 215.536,92.221 C214.096,92.257 212.878,91.161 212.763,89.725 C212.803,89.053 212.957,88.392 213.219,87.772 C213.359,87.542 213.307,87.243 213.096,87.075 C212.268,86.366 211.444,85.645 210.639,84.908 C210.33,84.622 210.152,84.682 209.938,85.007 C209.01,86.364 208.511,87.97 208.508,89.614 C208.508,93.263 211.638,96.5 215.295,96.544 C219.97,96.599 224.641,96.575 229.316,96.544 C230.717,96.554 232.059,95.98 233.02,94.959 C233.305,94.662 233.475,94.701 233.749,94.959 C234.81,96.007 236.251,96.579 237.742,96.544 Q249.315,96.544 260.887,96.544 C262.434,96.617 263.927,95.965 264.925,94.781 C264.976,94.669 265.085,94.596 265.207,94.59 C265.33,94.584 265.445,94.647 265.507,94.753 C266.696,96.1 268.225,96.567 269.976,96.555 C273.716,96.536 277.456,96.555 281.192,96.555 L281.192,96.555 C285.106,96.555 289.021,96.555 292.931,96.555 C295.462,96.555 297.321,95.252 298.002,92.966 C298.269,92.055 298.416,91.114 298.438,90.165 C298.517,87.673 298.473,85.201 298.485,82.729 z M151.287,90.981 C151.362,88.208 151.315,85.47 151.327,82.713 C151.36,82.577 151.32,82.434 151.221,82.336 C151.122,82.237 150.979,82.199 150.843,82.233 C149.718,82.233 148.593,82.233 147.468,82.233 C147.325,82.204 147.178,82.251 147.077,82.356 C146.977,82.462 146.937,82.611 146.973,82.752 C146.973,83.37 146.973,83.988 146.973,84.606 C146.973,86.429 146.992,88.251 146.973,90.07 C146.949,91.655 146.339,92.213 144.786,92.213 L125.389,92.213 C123.332,92.213 122.219,91.096 122.219,89.044 C122.219,87.364 122.219,85.688 122.219,84.008 C122.219,83.283 122.219,83.279 121.466,83.279 L118.519,83.279 C117.817,83.279 117.806,83.279 117.806,84 C117.806,85.934 117.806,87.863 117.806,89.797 C117.806,91.413 116.966,92.209 115.353,92.229 L95.909,92.229 C95.75,92.229 95.592,92.229 95.433,92.229 C94.583,92.243 93.865,91.601 93.785,90.755 C93.736,90.41 93.714,90.062 93.718,89.713 Q93.718,83.085 93.718,76.457 C93.718,75.819 93.686,75.787 93.048,75.783 L90.1,75.783 C89.391,75.783 89.379,75.783 89.379,76.497 Q89.379,83.267 89.379,90.038 C89.376,90.624 89.42,91.21 89.51,91.789 C89.744,93.208 90.219,94.519 91.408,95.45 C92.401,96.205 93.624,96.595 94.871,96.555 L105.754,96.555 C109.399,96.555 113.043,96.555 116.684,96.555 C118.166,96.603 119.591,95.984 120.567,94.868 C120.852,94.539 121.054,94.555 121.328,94.868 C122.457,96.116 123.903,96.579 125.547,96.575 C128.812,96.575 132.076,96.575 135.337,96.575 C138.839,96.575 142.341,96.575 145.84,96.575 C147.286,96.633 148.689,96.079 149.706,95.05 C150.739,93.949 151.306,92.491 151.287,90.981 z M197.91,93.255 C198.223,92.343 198.402,91.39 198.441,90.426 C198.512,87.879 198.441,85.328 198.477,82.776 C198.477,82.348 198.306,82.233 197.91,82.241 C196.848,82.241 195.787,82.241 194.741,82.241 C194.079,82.241 194.071,82.241 194.071,82.899 Q194.071,86.556 194.071,90.216 C194.071,91.595 193.445,92.217 192.062,92.217 L170.668,92.217 C169.908,92.217 169.876,92.178 169.876,91.425 Q169.876,87.174 169.876,82.919 C169.876,82.277 169.876,82.257 169.207,82.257 C167.115,82.257 165.023,82.257 162.931,82.257 C162.235,82.265 161.541,82.34 160.859,82.479 C155.356,83.62 154.124,89.297 156.311,92.966 C157.685,95.296 159.833,96.393 162.487,96.532 C163.196,96.571 163.913,96.532 164.627,96.555 C164.763,96.554 164.892,96.613 164.979,96.718 C164.987,96.854 164.939,96.988 164.845,97.086 C164.325,97.675 163.602,98.045 162.82,98.12 C161.63,98.288 160.419,98.221 159.254,97.922 C158.779,97.811 158.712,97.887 158.858,98.362 C159.12,99.289 159.409,100.212 159.651,101.135 C159.73,101.499 160.037,101.768 160.407,101.801 C162.009,102.155 163.675,102.09 165.245,101.615 C167.455,100.941 169.076,99.634 169.674,97.28 C169.864,96.536 169.86,96.532 170.617,96.532 L181.928,96.532 C185.652,96.532 189.376,96.532 193.096,96.532 C195.371,96.52 197.229,95.292 197.91,93.255 z M165.423,89.214 C165.423,90.006 165.423,90.831 165.423,91.635 C165.459,91.801 165.409,91.974 165.288,92.094 C165.168,92.215 164.995,92.265 164.829,92.229 C164.1,92.229 163.371,92.229 162.646,92.229 C161.858,92.217 161.11,91.88 160.58,91.298 C160.049,90.716 159.783,89.94 159.845,89.155 C159.842,87.537 161.143,86.219 162.761,86.199 C163.442,86.199 164.123,86.199 164.805,86.199 C164.978,86.156 165.162,86.206 165.289,86.331 C165.417,86.457 165.47,86.639 165.431,86.813 C165.423,87.59 165.435,88.398 165.435,89.202 z M77.989,123.013 C77.8,122.926 77.617,122.827 77.442,122.715 L77.918,122.359 C78.315,122.099 78.699,121.819 79.067,121.519 C80.857,119.903 81.444,117.878 81.008,115.537 C80.725,113.636 79.556,111.983 77.858,111.083 C76.048,110.081 74.067,109.796 72.046,109.701 C69.67,109.646 67.296,109.856 64.967,110.327 C64.787,110.327 64.617,110.407 64.503,110.546 C64.39,110.685 64.345,110.868 64.38,111.044 Q64.38,123.227 64.38,135.409 C64.38,135.865 64.515,136.071 64.97,136.122 C66.555,136.289 68.14,136.519 69.725,136.645 C72.112,136.868 74.52,136.62 76.812,135.916 C79.796,134.969 81.757,133.099 82.054,129.823 C82.323,126.931 81.067,124.114 77.989,123.013 z M69.737,113.9 C71.029,113.858 72.323,113.891 73.611,113.999 C75.267,114.221 76.186,115.354 76.258,116.927 C76.341,118.702 75.509,119.942 73.881,120.426 C72.478,120.822 71.036,120.802 69.594,120.774 C69.222,120.774 69.17,120.521 69.17,120.227 Q69.17,118.777 69.17,117.331 C69.17,116.396 69.17,115.465 69.17,114.53 C69.136,114.368 69.182,114.198 69.294,114.075 C69.407,113.953 69.571,113.892 69.737,113.912 z M74.954,131.887 C73.261,132.488 71.443,132.653 69.669,132.367 C69.521,132.358 69.383,132.288 69.291,132.172 C69.198,132.056 69.158,131.907 69.182,131.76 C69.182,130.699 69.182,129.641 69.182,128.591 C69.182,127.541 69.182,126.503 69.182,125.457 C69.182,125.14 69.241,124.879 69.634,124.879 C71.167,124.879 72.708,124.776 74.221,125.136 C75.41,125.417 76.404,125.929 76.884,127.117 C77.597,128.912 77.106,131.075 74.954,131.899 z M232.014,123.044 C231.827,122.977 231.653,122.882 231.348,122.739 C231.594,122.565 231.72,122.454 231.867,122.367 C234.185,120.988 235.286,118.968 235.072,116.266 C234.986,113.975 233.631,111.924 231.558,110.945 C229.823,110.065 227.949,109.796 226.039,109.709 C223.69,109.649 221.342,109.844 219.035,110.291 C218.524,110.378 218.377,110.612 218.377,111.115 Q218.397,123.254 218.377,135.393 C218.377,135.865 218.516,136.083 218.995,136.13 C220.536,136.289 222.073,136.503 223.618,136.637 C225.895,136.839 228.189,136.633 230.393,136.027 C231.915,135.675 233.303,134.891 234.391,133.769 C235.694,132.335 236.09,130.6 236.039,128.714 C236.021,126.166 234.413,123.901 232.014,123.044 z M223.099,114.566 C223.099,114.134 223.25,113.9 223.694,113.908 C224.954,113.864 226.216,113.894 227.473,113.999 C229.252,114.241 230.108,115.271 230.195,116.939 C230.286,118.746 229.482,119.95 227.79,120.453 C226.388,120.869 224.942,120.814 223.5,120.786 C223.139,120.786 223.103,120.529 223.103,120.263 C223.103,119.296 223.103,118.334 223.103,117.367 L223.103,117.367 C223.107,116.436 223.119,115.501 223.099,114.566 z M230.972,129.791 C230.692,130.756 229.963,131.525 229.014,131.855 C227.272,132.517 225.382,132.692 223.547,132.363 C223.151,132.303 223.103,132.022 223.103,131.705 Q223.103,130.12 223.103,128.571 Q223.103,127.022 223.103,125.437 C223.103,125.12 223.171,124.867 223.567,124.871 C225.116,124.871 226.673,124.78 228.202,125.128 C231.023,125.742 231.455,128.044 230.976,129.791 z M140.967,117.751 C138.467,116.464 135.891,116.444 133.281,117.383 C132.417,117.692 132.397,117.696 132.397,116.757 Q132.397,114.831 132.397,112.91 Q132.397,110.794 132.397,108.683 C132.397,108.397 132.353,108.183 132.001,108.187 C130.765,108.187 129.529,108.187 128.293,108.187 C128.184,108.173 128.074,108.21 127.997,108.288 C127.919,108.365 127.882,108.475 127.896,108.584 C127.896,108.758 127.896,108.932 127.896,109.107 C127.896,115.933 127.896,122.759 127.896,129.581 C127.896,131.352 127.805,133.123 127.73,134.894 C127.73,135.29 127.813,135.564 128.237,135.655 C129.505,135.928 130.757,136.277 132.037,136.479 C134.144,136.812 136.26,136.875 138.34,136.229 C141.327,135.29 143.593,133.488 144.758,130.544 C145.99,127.422 145.713,124.3 144.33,121.281 C143.648,119.753 142.46,118.506 140.967,117.751 z M139.421,130.405 C138.372,132.176 136.735,132.826 134.762,132.763 C134.147,132.714 133.536,132.628 132.932,132.505 C132.764,132.494 132.609,132.412 132.505,132.28 C132.402,132.148 132.359,131.977 132.389,131.812 C132.389,130.195 132.389,128.583 132.389,126.967 C132.389,125.35 132.389,123.797 132.389,122.212 C132.352,121.81 132.584,121.431 132.96,121.281 C134.853,120.362 137.437,120.426 138.926,122.117 C139.622,122.927 140.069,123.92 140.214,124.978 C140.495,126.864 140.428,128.71 139.421,130.405 z M290.146,127.046 C289.709,126.57 289.216,126.151 288.676,125.798 C288.331,125.56 288.331,125.402 288.601,125.148 L290.906,122.957 Q293.68,120.319 296.453,117.68 C296.564,117.546 296.664,117.403 296.75,117.252 C296.461,117.228 296.279,117.197 296.092,117.197 C294.587,117.197 293.081,117.197 291.576,117.197 C291.214,117.176 290.862,117.322 290.621,117.593 Q288.066,120.279 285.471,122.937 C285.324,123.092 285.15,123.219 284.876,123.456 C284.837,123.06 284.789,122.787 284.789,122.513 Q284.789,115.695 284.789,108.877 C284.789,108.175 284.789,108.175 284.072,108.172 L280.839,108.172 C280.213,108.172 280.194,108.195 280.194,108.809 Q280.194,122.232 280.194,135.655 C280.194,136.103 280.324,136.273 280.788,136.265 C281.913,136.241 283.038,136.265 284.163,136.265 C284.773,136.265 284.797,136.237 284.797,135.615 Q284.797,132.03 284.797,128.44 C284.797,128.282 284.797,128.123 284.797,127.965 C284.829,127.624 285.007,127.541 285.269,127.755 C285.664,128.045 286.03,128.373 286.362,128.733 Q289.302,132.299 292.194,135.865 C292.393,136.132 292.713,136.281 293.046,136.261 C294.488,136.261 295.93,136.261 297.372,136.261 C297.535,136.261 297.701,136.225 297.97,136.19 C297.812,135.972 297.721,135.837 297.614,135.71 C295.134,132.826 292.654,129.922 290.146,127.05 z M99.292,118.195 C97.702,117.216 95.87,116.701 94.003,116.709 C93.547,116.749 93.088,116.781 92.632,116.832 C90.145,117.037 87.868,118.305 86.384,120.311 C84.384,122.993 84.007,126.043 84.645,129.256 C85.109,131.924 86.762,134.236 89.138,135.536 C91.029,136.562 93.202,136.944 95.33,136.625 C98.785,136.194 101.273,134.399 102.679,131.206 C103.605,129.049 103.833,126.657 103.333,124.364 C102.915,121.83 101.448,119.59 99.292,118.195 z M97.378,131.071 C95.718,133.539 91.808,133.349 90.354,130.75 C89.653,129.494 89.451,128.131 89.427,126.578 C89.486,125.104 89.72,123.54 90.742,122.2 C92.283,120.176 95.667,120.18 97.208,122.2 C98.002,123.299 98.447,124.61 98.488,125.964 C98.591,127.775 98.401,129.526 97.363,131.071 z M254.862,127.87 L254.862,127.87 C254.862,126.158 254.862,124.451 254.862,122.739 C254.885,121.465 254.502,120.216 253.768,119.174 C252.675,117.688 251.094,117.082 249.355,116.864 C246.348,116.487 243.467,117.07 240.67,118.167 C240.274,118.326 240.23,118.536 240.401,118.896 C240.773,119.689 241.122,120.481 241.478,121.273 C241.728,121.832 241.74,121.84 242.326,121.622 C243.906,120.998 245.592,120.688 247.29,120.711 C248.046,120.732 248.791,120.897 249.485,121.198 C250.535,121.673 250.555,122.973 249.592,123.607 C249.35,123.778 249.082,123.912 248.8,124.003 Q247.496,124.364 246.177,124.665 C244.509,125.041 242.825,125.346 241.292,126.158 C239.298,127.116 238.154,129.257 238.467,131.447 C238.65,133.329 239.656,134.597 241.268,135.469 C242.985,136.341 244.89,136.776 246.815,136.736 C249.533,136.78 252.148,136.134 254.739,135.374 C254.863,135.351 254.973,135.276 255.039,135.168 C255.106,135.06 255.123,134.929 255.087,134.807 C255.004,133.769 254.921,132.727 254.893,131.685 C254.822,130.401 254.846,129.134 254.846,127.866 z M249.945,132.477 C248.428,132.955 246.814,133.034 245.258,132.707 C244.05,132.418 243.436,131.665 243.432,130.603 C243.382,129.899 243.778,129.239 244.422,128.951 C245.238,128.617 246.073,128.33 246.922,128.092 C247.869,127.795 248.828,127.537 249.775,127.236 C250.139,127.121 250.242,127.272 250.246,127.585 C250.246,128.266 250.246,128.943 250.246,129.625 L250.297,129.625 C250.297,130.417 250.297,131.174 250.297,131.947 C250.344,132.19 250.187,132.426 249.945,132.477 z M183.834,133.448 C183.834,131.424 183.834,129.399 183.834,127.371 L183.758,127.371 C183.758,125.833 183.758,124.3 183.758,122.763 C183.739,119.594 181.972,117.478 178.822,116.939 C175.672,116.4 172.558,117.014 169.571,118.163 C169.175,118.31 169.175,118.536 169.317,118.869 C169.714,119.7 170.11,120.532 170.458,121.372 C170.613,121.733 170.799,121.769 171.16,121.658 C172.269,121.341 173.382,121.032 174.511,120.802 C175.571,120.579 176.669,120.607 177.717,120.881 C178.644,121.127 179.182,121.673 179.226,122.375 C179.266,123.017 178.83,123.528 177.946,123.9 C177.773,123.978 177.594,124.043 177.411,124.094 C176.643,124.284 175.878,124.49 175.102,124.645 C173.382,125.005 171.663,125.358 170.09,126.202 C168.727,126.926 167.755,128.217 167.434,129.726 C167.113,131.236 167.476,132.81 168.426,134.027 C169.357,135.215 170.668,135.809 172.079,136.198 C173.748,136.647 175.483,136.803 177.205,136.657 C179.381,136.446 181.529,136.013 183.616,135.366 C183.76,135.345 183.887,135.261 183.964,135.137 C184.04,135.013 184.058,134.862 184.012,134.724 C183.92,134.306 183.861,133.883 183.834,133.456 z M178.881,132.493 C177.36,132.957 175.747,133.031 174.191,132.707 C173.604,132.608 173.08,132.282 172.733,131.8 C172.035,130.738 172.313,129.423 173.477,128.908 C174.464,128.53 175.472,128.211 176.496,127.953 C177.233,127.723 177.982,127.517 178.707,127.248 C179.079,127.109 179.214,127.2 179.218,127.561 C179.218,128.321 179.218,129.082 179.218,129.839 L179.218,129.839 C179.218,130.552 179.218,131.265 179.218,131.974 C179.265,132.212 179.114,132.444 178.877,132.497 z M204.911,122.038 C204.613,120.085 203.663,118.575 201.828,117.708 C199.879,116.785 197.803,116.646 195.695,116.785 C193.223,116.947 190.878,117.668 188.564,118.453 C188.401,118.482 188.257,118.577 188.167,118.716 C188.077,118.855 188.049,119.025 188.089,119.185 C188.172,120.002 188.259,120.826 188.271,121.646 C188.295,123.833 188.271,126.004 188.271,128.203 C188.271,130.691 188.271,133.175 188.271,135.663 C188.271,136.11 188.398,136.285 188.865,136.277 Q190.577,136.241 192.288,136.277 C192.748,136.277 192.89,136.118 192.882,135.667 C192.882,133.844 192.882,132.022 192.882,130.203 C192.882,127.43 192.847,124.692 192.859,121.939 C192.902,121.719 193.05,121.535 193.255,121.444 C194.511,120.933 195.863,120.702 197.217,120.766 C198.964,120.873 200.2,121.919 200.45,123.54 C200.524,124.057 200.559,124.578 200.557,125.1 C200.557,128.587 200.557,132.069 200.557,135.556 C200.557,136.217 200.592,136.249 201.258,136.253 L204.396,136.253 C205.073,136.253 205.085,136.253 205.085,135.56 Q205.085,129.668 205.085,123.777 C205.07,123.195 205.011,122.615 204.911,122.042 z M123.459,131.966 C123.435,129.752 123.459,127.533 123.459,125.318 Q123.459,121.567 123.459,117.815 C123.459,117.228 123.431,117.201 122.837,117.197 L119.497,117.197 C118.879,117.197 118.852,117.228 118.852,117.838 Q118.852,121.709 118.852,125.58 Q118.852,128.547 118.887,131.523 C118.907,131.771 118.736,131.994 118.491,132.038 C117.222,132.546 115.858,132.772 114.493,132.699 C113.63,132.662 112.808,132.314 112.18,131.721 C111.387,130.928 111.197,129.906 111.193,128.84 C111.193,125.184 111.193,121.527 111.193,117.866 C111.193,117.252 111.15,117.205 110.555,117.205 C109.446,117.205 108.337,117.205 107.227,117.205 C107.072,117.165 106.908,117.209 106.792,117.32 C106.677,117.432 106.627,117.595 106.661,117.751 C106.661,121.994 106.625,126.238 106.689,130.481 C106.724,132.858 107.703,134.767 109.977,135.825 C111.438,136.451 113.015,136.759 114.604,136.728 C117.611,136.772 120.452,135.936 123.261,134.973 C123.637,134.843 123.657,134.577 123.614,134.252 C123.558,133.48 123.459,132.723 123.459,131.966 z M276.038,122.755 C276.01,120.208 274.584,118.282 272.191,117.411 C270.46,116.819 268.623,116.602 266.802,116.773 C264.299,116.947 261.922,117.668 259.56,118.456 C259.399,118.489 259.259,118.589 259.175,118.731 C259.091,118.873 259.071,119.044 259.12,119.201 C259.224,120.287 259.323,121.376 259.342,122.466 C259.378,124.447 259.342,126.455 259.342,128.452 Q259.342,132.042 259.342,135.627 C259.342,136.217 259.386,136.265 259.952,136.265 C261.062,136.265 262.171,136.265 263.28,136.265 C263.744,136.265 263.879,136.095 263.875,135.651 C263.875,131.107 263.875,126.558 263.847,122.014 C263.805,121.726 263.994,121.454 264.279,121.392 C265.473,120.961 266.733,120.743 268.003,120.746 C270.047,120.802 271.367,122.022 271.509,124.055 C271.509,124.245 271.509,124.451 271.509,124.625 C271.509,128.298 271.509,131.974 271.509,135.647 C271.509,136.087 271.632,136.277 272.099,136.265 C273.225,136.241 274.35,136.265 275.475,136.265 C275.63,136.305 275.795,136.262 275.912,136.152 C276.028,136.042 276.08,135.88 276.049,135.722 C276.053,131.404 276.085,127.081 276.038,122.759 z M67.443,99.38 C69.82,101.547 72.645,102.336 75.834,101.959 C80.664,101.453 84.427,97.539 84.744,92.693 C84.859,90.91 84.744,89.127 84.744,87.328 L84.835,87.328 C84.835,85.823 84.835,84.317 84.835,82.816 C84.835,82.392 84.712,82.221 84.269,82.233 C83.207,82.257 82.145,82.233 81.099,82.233 C80.441,82.233 80.438,82.233 80.438,82.895 C80.438,85.7 80.438,88.501 80.438,91.306 C80.431,91.939 80.339,92.568 80.164,93.176 C79.281,96.227 76.345,98.164 73.401,97.534 C70.834,96.983 69.214,95.284 68.528,92.78 C67.985,90.799 68.374,88.854 69.012,86.948 C69.206,86.37 69.182,86.31 68.588,86.31 C67.494,86.31 66.401,86.31 65.307,86.31 C65.116,86.276 64.92,86.321 64.764,86.436 C64.607,86.55 64.504,86.724 64.479,86.916 C63.966,88.867 63.847,90.901 64.127,92.899 C64.418,95.386 65.595,97.686 67.443,99.376 z M217.355,85.791 C218.321,85.791 219.284,85.791 220.251,85.791 C221.218,85.791 222.153,85.791 223.099,85.791 C223.965,85.803 224.8,85.468 225.417,84.86 C225.896,84.381 225.889,84.254 225.417,83.786 L224.882,83.287 C224.549,82.958 224.217,82.677 223.773,83.129 C223.712,83.181 223.635,83.21 223.555,83.212 C222.878,83.212 222.196,83.256 221.519,83.24 C221.365,83.195 221.245,83.073 221.202,82.919 C221.169,82.479 221.195,82.036 221.281,81.603 C221.365,81.357 221.565,81.167 221.816,81.096 C222.087,81.063 222.357,81.163 222.541,81.366 C222.79,81.948 223.238,81.916 223.729,81.897 C224.03,81.897 224.332,81.897 224.633,81.897 C225.148,81.897 225.219,81.809 225.144,81.31 C224.862,79.46 223.924,78.628 222.046,78.569 C220.683,78.525 219.569,79.147 219.134,80.351 C218.921,81.027 218.8,81.728 218.773,82.435 C218.71,83.252 218.773,83.267 217.949,83.275 C217.656,83.23 217.382,83.43 217.335,83.723 C217.204,84.226 217.026,84.721 216.883,85.221 C216.741,85.72 216.8,85.787 217.355,85.791 z M74.693,84.713 C74.091,84.713 73.504,84.713 72.886,84.713 C72.768,84.686 72.644,84.72 72.556,84.804 C72.468,84.888 72.429,85.01 72.45,85.129 Q72.45,86.627 72.45,88.121 C72.429,88.239 72.467,88.361 72.552,88.446 C72.638,88.531 72.76,88.568 72.878,88.545 Q74.661,88.545 76.444,88.545 C76.563,88.57 76.687,88.535 76.775,88.451 C76.863,88.367 76.903,88.245 76.884,88.125 Q76.884,86.627 76.884,85.133 C76.904,85.014 76.865,84.893 76.779,84.809 C76.693,84.724 76.57,84.687 76.452,84.71 C75.866,84.721 75.279,84.713 74.693,84.713 z M113.693,102.047 C114.295,102.047 114.882,102.047 115.496,102.047 C115.621,102.065 115.747,102.022 115.835,101.932 C115.923,101.842 115.964,101.715 115.944,101.591 Q115.944,100.169 115.944,98.742 C115.964,98.618 115.923,98.491 115.835,98.401 C115.747,98.311 115.621,98.269 115.496,98.287 Q113.693,98.287 111.887,98.287 C111.762,98.269 111.636,98.311 111.547,98.401 C111.459,98.491 111.419,98.618 111.439,98.742 Q111.439,100.165 111.439,101.591 C111.42,101.715 111.461,101.84 111.549,101.929 C111.637,102.018 111.763,102.06 111.887,102.043 C112.489,102.039 113.091,102.047 113.693,102.047 z M148.197,102.047 C148.799,102.047 149.385,102.047 150.003,102.047 C150.127,102.065 150.253,102.024 150.342,101.936 C150.431,101.848 150.473,101.723 150.455,101.599 Q150.455,100.177 150.455,98.75 C150.476,98.626 150.437,98.499 150.35,98.408 C150.262,98.317 150.136,98.274 150.011,98.291 Q148.209,98.291 146.402,98.291 C146.278,98.27 146.151,98.311 146.061,98.399 C145.971,98.488 145.929,98.614 145.947,98.738 C145.947,99.689 145.947,100.636 145.947,101.587 C145.918,101.722 145.962,101.862 146.062,101.956 C146.163,102.051 146.305,102.086 146.438,102.05 C147.028,102.039 147.626,102.047 148.197,102.047 z M295.233,102.047 C295.851,102.047 296.469,102.047 297.083,102.047 C297.208,102.066 297.336,102.024 297.425,101.934 C297.514,101.844 297.555,101.716 297.535,101.591 Q297.535,100.169 297.535,98.742 C297.554,98.618 297.512,98.491 297.423,98.402 C297.334,98.313 297.208,98.272 297.083,98.291 Q295.276,98.291 293.474,98.291 C293.349,98.274 293.225,98.317 293.137,98.407 C293.05,98.497 293.01,98.623 293.03,98.746 Q293.03,100.169 293.03,101.595 C293.011,101.719 293.052,101.844 293.14,101.933 C293.228,102.022 293.354,102.064 293.478,102.047 C294.064,102.039 294.646,102.047 295.233,102.047 z M118.233,102.047 Q120.016,102.047 121.799,102.047 C121.918,102.068 122.04,102.03 122.125,101.944 C122.21,101.859 122.248,101.737 122.227,101.619 Q122.227,100.169 122.227,98.723 C122.249,98.603 122.21,98.48 122.124,98.395 C122.038,98.309 121.915,98.272 121.795,98.295 C121.209,98.295 120.607,98.295 120.036,98.295 C119.466,98.295 118.848,98.295 118.23,98.295 C118.11,98.271 117.987,98.309 117.902,98.395 C117.816,98.48 117.778,98.603 117.802,98.723 Q117.802,100.173 117.802,101.619 C117.778,101.739 117.816,101.863 117.903,101.949 C117.989,102.035 118.114,102.071 118.233,102.047 z M197.074,98.291 C196.504,98.291 195.933,98.291 195.363,98.291 C194.792,98.291 194.174,98.291 193.556,98.291 C193.43,98.269 193.301,98.309 193.21,98.398 C193.119,98.488 193.077,98.616 193.096,98.742 Q193.096,100.169 193.096,101.595 C193.077,101.721 193.119,101.849 193.21,101.939 C193.301,102.028 193.43,102.069 193.556,102.047 Q195.315,102.047 197.074,102.047 C197.199,102.067 197.327,102.026 197.417,101.937 C197.507,101.848 197.549,101.72 197.53,101.595 Q197.53,100.169 197.53,98.742 C197.548,98.617 197.505,98.49 197.414,98.401 C197.323,98.313 197.195,98.273 197.07,98.295 z M262.48,79.527 Q264.239,79.527 265.998,79.527 C266.125,79.551 266.255,79.511 266.347,79.422 C266.439,79.332 266.482,79.203 266.462,79.076 C266.462,78.125 266.462,77.174 266.462,76.223 C266.491,76.087 266.447,75.945 266.344,75.849 C266.242,75.754 266.097,75.72 265.963,75.76 C265.392,75.76 264.822,75.76 264.251,75.76 C263.681,75.76 263.063,75.76 262.492,75.76 C262.367,75.739 262.239,75.78 262.149,75.869 C262.059,75.959 262.017,76.086 262.036,76.211 Q262.036,77.638 262.036,79.064 C262.012,79.189 262.05,79.317 262.137,79.41 C262.224,79.502 262.35,79.548 262.476,79.531 z" fill="#232323" fill-opacity="0.8"/>
      <path d="M166.144,117.197 C164.955,117.197 163.799,117.197 162.626,117.197 C162.417,117.162 162.203,117.213 162.032,117.337 C161.861,117.462 161.747,117.649 161.715,117.858 C160.316,122.113 158.894,126.356 157.472,130.603 C157.38,130.869 157.246,131.122 157.135,131.396 L156.98,131.396 C156.885,131.186 156.774,131 156.691,130.77 Q154.262,124.328 151.854,117.882 C151.759,117.455 151.353,117.171 150.919,117.228 C149.73,117.26 148.51,117.228 147.305,117.228 C146.477,117.228 146.458,117.252 146.775,118.021 Q149.294,124.043 151.822,130.057 C152.492,131.641 153.165,133.226 153.862,134.811 C154.117,135.47 154.599,136.017 155.221,136.352 C155.681,136.574 155.665,136.82 155.467,137.208 C154.416,139.442 152.538,141.179 150.229,142.053 C149.833,142.2 149.766,142.354 150.023,142.699 C150.709,143.626 151.374,144.565 152.048,145.5 L152.444,145.5 C153.263,145.144 154.057,144.734 154.821,144.272 C156.929,142.818 158.224,140.706 159.151,138.392 C159.987,136.309 160.704,134.177 161.465,132.054 Q164.024,124.954 166.572,117.85 C166.762,117.284 166.703,117.201 166.144,117.197 z M298.469,82.729 C298.514,82.587 298.476,82.431 298.37,82.327 C298.263,82.222 298.108,82.186 297.966,82.233 C296.889,82.233 295.811,82.233 294.733,82.233 C294.06,82.233 294.052,82.233 294.052,82.931 C294.052,85.371 294.052,87.808 294.052,90.248 C294.052,91.563 293.386,92.229 292.071,92.229 Q280.808,92.229 269.54,92.229 C267.654,92.229 266.513,91.084 266.509,89.206 C266.509,87.415 266.509,85.641 266.509,83.838 C266.549,83.683 266.505,83.518 266.394,83.403 C266.282,83.288 266.119,83.24 265.963,83.275 C264.901,83.275 263.839,83.275 262.793,83.275 C262.132,83.275 262.104,83.307 262.104,83.981 C262.104,85.882 262.104,87.78 262.104,89.682 C262.104,91.401 261.284,92.221 259.604,92.221 Q248.602,92.221 237.596,92.221 C235.892,92.221 234.823,91.266 234.62,89.579 C234.596,89.343 234.587,89.106 234.593,88.869 Q234.593,82.645 234.593,76.421 C234.593,75.807 234.565,75.78 233.947,75.78 L230.904,75.78 C230.171,75.78 230.171,75.78 230.171,76.524 Q230.171,83.259 230.171,89.971 C230.176,90.208 230.164,90.445 230.136,90.68 C229.993,91.69 229.438,92.217 228.416,92.221 C224.122,92.221 219.831,92.241 215.536,92.221 C214.096,92.257 212.878,91.161 212.763,89.725 C212.803,89.053 212.957,88.392 213.219,87.772 C213.359,87.542 213.307,87.243 213.096,87.075 C212.268,86.366 211.444,85.645 210.639,84.908 C210.33,84.622 210.152,84.682 209.938,85.007 C209.01,86.364 208.511,87.97 208.508,89.614 C208.508,93.263 211.638,96.5 215.295,96.544 C219.97,96.599 224.641,96.575 229.316,96.544 C230.717,96.554 232.059,95.98 233.02,94.959 C233.305,94.662 233.475,94.701 233.749,94.959 C234.81,96.007 236.251,96.579 237.742,96.544 Q249.315,96.544 260.887,96.544 C262.434,96.617 263.927,95.965 264.925,94.781 C264.976,94.669 265.085,94.596 265.207,94.59 C265.33,94.584 265.445,94.647 265.507,94.753 C266.696,96.1 268.225,96.567 269.976,96.555 C273.716,96.536 277.456,96.555 281.192,96.555 L281.192,96.555 C285.106,96.555 289.021,96.555 292.931,96.555 C295.462,96.555 297.321,95.252 298.002,92.966 C298.269,92.055 298.416,91.114 298.438,90.165 C298.517,87.673 298.473,85.201 298.485,82.729 z M151.287,90.981 C151.362,88.208 151.315,85.47 151.327,82.713 C151.36,82.577 151.32,82.434 151.221,82.336 C151.122,82.237 150.979,82.199 150.843,82.233 C149.718,82.233 148.593,82.233 147.468,82.233 C147.325,82.204 147.178,82.251 147.077,82.356 C146.977,82.462 146.937,82.611 146.973,82.752 C146.973,83.37 146.973,83.988 146.973,84.606 C146.973,86.429 146.992,88.251 146.973,90.07 C146.949,91.655 146.339,92.213 144.786,92.213 L125.389,92.213 C123.332,92.213 122.219,91.096 122.219,89.044 C122.219,87.364 122.219,85.688 122.219,84.008 C122.219,83.283 122.219,83.279 121.466,83.279 L118.519,83.279 C117.817,83.279 117.806,83.279 117.806,84 C117.806,85.934 117.806,87.863 117.806,89.797 C117.806,91.413 116.966,92.209 115.353,92.229 L95.909,92.229 C95.75,92.229 95.592,92.229 95.433,92.229 C94.583,92.243 93.865,91.601 93.785,90.755 C93.736,90.41 93.714,90.062 93.718,89.713 Q93.718,83.085 93.718,76.457 C93.718,75.819 93.686,75.787 93.048,75.783 L90.1,75.783 C89.391,75.783 89.379,75.783 89.379,76.497 Q89.379,83.267 89.379,90.038 C89.376,90.624 89.42,91.21 89.51,91.789 C89.744,93.208 90.219,94.519 91.408,95.45 C92.401,96.205 93.624,96.595 94.871,96.555 L105.754,96.555 C109.399,96.555 113.043,96.555 116.684,96.555 C118.166,96.603 119.591,95.984 120.567,94.868 C120.852,94.539 121.054,94.555 121.328,94.868 C122.457,96.116 123.903,96.579 125.547,96.575 C128.812,96.575 132.076,96.575 135.337,96.575 C138.839,96.575 142.341,96.575 145.84,96.575 C147.286,96.633 148.689,96.079 149.706,95.05 C150.739,93.949 151.306,92.491 151.287,90.981 z M197.91,93.255 C198.223,92.343 198.402,91.39 198.441,90.426 C198.512,87.879 198.441,85.328 198.477,82.776 C198.477,82.348 198.306,82.233 197.91,82.241 C196.848,82.241 195.787,82.241 194.741,82.241 C194.079,82.241 194.071,82.241 194.071,82.899 Q194.071,86.556 194.071,90.216 C194.071,91.595 193.445,92.217 192.062,92.217 L170.668,92.217 C169.908,92.217 169.876,92.178 169.876,91.425 Q169.876,87.174 169.876,82.919 C169.876,82.277 169.876,82.257 169.207,82.257 C167.115,82.257 165.023,82.257 162.931,82.257 C162.235,82.265 161.541,82.34 160.859,82.479 C155.356,83.62 154.124,89.297 156.311,92.966 C157.685,95.296 159.833,96.393 162.487,96.532 C163.196,96.571 163.913,96.532 164.627,96.555 C164.763,96.554 164.892,96.613 164.979,96.718 C164.987,96.854 164.939,96.988 164.845,97.086 C164.325,97.675 163.602,98.045 162.82,98.12 C161.63,98.288 160.419,98.221 159.254,97.922 C158.779,97.811 158.712,97.887 158.858,98.362 C159.12,99.289 159.409,100.212 159.651,101.135 C159.73,101.499 160.037,101.768 160.407,101.801 C162.009,102.155 163.675,102.09 165.245,101.615 C167.455,100.941 169.076,99.634 169.674,97.28 C169.864,96.536 169.86,96.532 170.617,96.532 L181.928,96.532 C185.652,96.532 189.376,96.532 193.096,96.532 C195.371,96.52 197.229,95.292 197.91,93.255 z M165.423,89.214 C165.423,90.006 165.423,90.831 165.423,91.635 C165.459,91.801 165.409,91.974 165.288,92.094 C165.168,92.215 164.995,92.265 164.829,92.229 C164.1,92.229 163.371,92.229 162.646,92.229 C161.858,92.217 161.11,91.88 160.58,91.298 C160.049,90.716 159.783,89.94 159.845,89.155 C159.842,87.537 161.143,86.219 162.761,86.199 C163.442,86.199 164.123,86.199 164.805,86.199 C164.978,86.156 165.162,86.206 165.289,86.331 C165.417,86.457 165.47,86.639 165.431,86.813 C165.423,87.59 165.435,88.398 165.435,89.202 z M77.989,123.013 C77.8,122.926 77.617,122.827 77.442,122.715 L77.918,122.359 C78.315,122.099 78.699,121.819 79.067,121.519 C80.857,119.903 81.444,117.878 81.008,115.537 C80.725,113.636 79.556,111.983 77.858,111.083 C76.048,110.081 74.067,109.796 72.046,109.701 C69.67,109.646 67.296,109.856 64.967,110.327 C64.787,110.327 64.617,110.407 64.503,110.546 C64.39,110.685 64.345,110.868 64.38,111.044 Q64.38,123.227 64.38,135.409 C64.38,135.865 64.515,136.071 64.97,136.122 C66.555,136.289 68.14,136.519 69.725,136.645 C72.112,136.868 74.52,136.62 76.812,135.916 C79.796,134.969 81.757,133.099 82.054,129.823 C82.323,126.931 81.067,124.114 77.989,123.013 z M69.737,113.9 C71.029,113.858 72.323,113.891 73.611,113.999 C75.267,114.221 76.186,115.354 76.258,116.927 C76.341,118.702 75.509,119.942 73.881,120.426 C72.478,120.822 71.036,120.802 69.594,120.774 C69.222,120.774 69.17,120.521 69.17,120.227 Q69.17,118.777 69.17,117.331 C69.17,116.396 69.17,115.465 69.17,114.53 C69.136,114.368 69.182,114.198 69.294,114.075 C69.407,113.953 69.571,113.892 69.737,113.912 z M74.954,131.887 C73.261,132.488 71.443,132.653 69.669,132.367 C69.521,132.358 69.383,132.288 69.291,132.172 C69.198,132.056 69.158,131.907 69.182,131.76 C69.182,130.699 69.182,129.641 69.182,128.591 C69.182,127.541 69.182,126.503 69.182,125.457 C69.182,125.14 69.241,124.879 69.634,124.879 C71.167,124.879 72.708,124.776 74.221,125.136 C75.41,125.417 76.404,125.929 76.884,127.117 C77.597,128.912 77.106,131.075 74.954,131.899 z M232.014,123.044 C231.827,122.977 231.653,122.882 231.348,122.739 C231.594,122.565 231.72,122.454 231.867,122.367 C234.185,120.988 235.286,118.968 235.072,116.266 C234.986,113.975 233.631,111.924 231.558,110.945 C229.823,110.065 227.949,109.796 226.039,109.709 C223.69,109.649 221.342,109.844 219.035,110.291 C218.524,110.378 218.377,110.612 218.377,111.115 Q218.397,123.254 218.377,135.393 C218.377,135.865 218.516,136.083 218.995,136.13 C220.536,136.289 222.073,136.503 223.618,136.637 C225.895,136.839 228.189,136.633 230.393,136.027 C231.915,135.675 233.303,134.891 234.391,133.769 C235.694,132.335 236.09,130.6 236.039,128.714 C236.021,126.166 234.413,123.901 232.014,123.044 z M223.099,114.566 C223.099,114.134 223.25,113.9 223.694,113.908 C224.954,113.864 226.216,113.894 227.473,113.999 C229.252,114.241 230.108,115.271 230.195,116.939 C230.286,118.746 229.482,119.95 227.79,120.453 C226.388,120.869 224.942,120.814 223.5,120.786 C223.139,120.786 223.103,120.529 223.103,120.263 C223.103,119.296 223.103,118.334 223.103,117.367 L223.103,117.367 C223.107,116.436 223.119,115.501 223.099,114.566 z M230.972,129.791 C230.692,130.756 229.963,131.525 229.014,131.855 C227.272,132.517 225.382,132.692 223.547,132.363 C223.151,132.303 223.103,132.022 223.103,131.705 Q223.103,130.12 223.103,128.571 Q223.103,127.022 223.103,125.437 C223.103,125.12 223.171,124.867 223.567,124.871 C225.116,124.871 226.673,124.78 228.202,125.128 C231.023,125.742 231.455,128.044 230.976,129.791 z M140.967,117.751 C138.467,116.464 135.891,116.444 133.281,117.383 C132.417,117.692 132.397,117.696 132.397,116.757 Q132.397,114.831 132.397,112.91 Q132.397,110.794 132.397,108.683 C132.397,108.397 132.353,108.183 132.001,108.187 C130.765,108.187 129.529,108.187 128.293,108.187 C128.184,108.173 128.074,108.21 127.997,108.288 C127.919,108.365 127.882,108.475 127.896,108.584 C127.896,108.758 127.896,108.932 127.896,109.107 C127.896,115.933 127.896,122.759 127.896,129.581 C127.896,131.352 127.805,133.123 127.73,134.894 C127.73,135.29 127.813,135.564 128.237,135.655 C129.505,135.928 130.757,136.277 132.037,136.479 C134.144,136.812 136.26,136.875 138.34,136.229 C141.327,135.29 143.593,133.488 144.758,130.544 C145.99,127.422 145.713,124.3 144.33,121.281 C143.648,119.753 142.46,118.506 140.967,117.751 z M139.421,130.405 C138.372,132.176 136.735,132.826 134.762,132.763 C134.147,132.714 133.536,132.628 132.932,132.505 C132.764,132.494 132.609,132.412 132.505,132.28 C132.402,132.148 132.359,131.977 132.389,131.812 C132.389,130.195 132.389,128.583 132.389,126.967 C132.389,125.35 132.389,123.797 132.389,122.212 C132.352,121.81 132.584,121.431 132.96,121.281 C134.853,120.362 137.437,120.426 138.926,122.117 C139.622,122.927 140.069,123.92 140.214,124.978 C140.495,126.864 140.428,128.71 139.421,130.405 z M290.146,127.046 C289.709,126.57 289.216,126.151 288.676,125.798 C288.331,125.56 288.331,125.402 288.601,125.148 L290.906,122.957 Q293.68,120.319 296.453,117.68 C296.564,117.546 296.664,117.403 296.75,117.252 C296.461,117.228 296.279,117.197 296.092,117.197 C294.587,117.197 293.081,117.197 291.576,117.197 C291.214,117.176 290.862,117.322 290.621,117.593 Q288.066,120.279 285.471,122.937 C285.324,123.092 285.15,123.219 284.876,123.456 C284.837,123.06 284.789,122.787 284.789,122.513 Q284.789,115.695 284.789,108.877 C284.789,108.175 284.789,108.175 284.072,108.172 L280.839,108.172 C280.213,108.172 280.194,108.195 280.194,108.809 Q280.194,122.232 280.194,135.655 C280.194,136.103 280.324,136.273 280.788,136.265 C281.913,136.241 283.038,136.265 284.163,136.265 C284.773,136.265 284.797,136.237 284.797,135.615 Q284.797,132.03 284.797,128.44 C284.797,128.282 284.797,128.123 284.797,127.965 C284.829,127.624 285.007,127.541 285.269,127.755 C285.664,128.045 286.03,128.373 286.362,128.733 Q289.302,132.299 292.194,135.865 C292.393,136.132 292.713,136.281 293.046,136.261 C294.488,136.261 295.93,136.261 297.372,136.261 C297.535,136.261 297.701,136.225 297.97,136.19 C297.812,135.972 297.721,135.837 297.614,135.71 C295.134,132.826 292.654,129.922 290.146,127.05 z M99.292,118.195 C97.702,117.216 95.87,116.701 94.003,116.709 C93.547,116.749 93.088,116.781 92.632,116.832 C90.145,117.037 87.868,118.305 86.384,120.311 C84.384,122.993 84.007,126.043 84.645,129.256 C85.109,131.924 86.762,134.236 89.138,135.536 C91.029,136.562 93.202,136.944 95.33,136.625 C98.785,136.194 101.273,134.399 102.679,131.206 C103.605,129.049 103.833,126.657 103.333,124.364 C102.915,121.83 101.448,119.59 99.292,118.195 z M97.378,131.071 C95.718,133.539 91.808,133.349 90.354,130.75 C89.653,129.494 89.451,128.131 89.427,126.578 C89.486,125.104 89.72,123.54 90.742,122.2 C92.283,120.176 95.667,120.18 97.208,122.2 C98.002,123.299 98.447,124.61 98.488,125.964 C98.591,127.775 98.401,129.526 97.363,131.071 z M254.862,127.87 L254.862,127.87 C254.862,126.158 254.862,124.451 254.862,122.739 C254.885,121.465 254.502,120.216 253.768,119.174 C252.675,117.688 251.094,117.082 249.355,116.864 C246.348,116.487 243.467,117.07 240.67,118.167 C240.274,118.326 240.23,118.536 240.401,118.896 C240.773,119.689 241.122,120.481 241.478,121.273 C241.728,121.832 241.74,121.84 242.326,121.622 C243.906,120.998 245.592,120.688 247.29,120.711 C248.046,120.732 248.791,120.897 249.485,121.198 C250.535,121.673 250.555,122.973 249.592,123.607 C249.35,123.778 249.082,123.912 248.8,124.003 Q247.496,124.364 246.177,124.665 C244.509,125.041 242.825,125.346 241.292,126.158 C239.298,127.116 238.154,129.257 238.467,131.447 C238.65,133.329 239.656,134.597 241.268,135.469 C242.985,136.341 244.89,136.776 246.815,136.736 C249.533,136.78 252.148,136.134 254.739,135.374 C254.863,135.351 254.973,135.276 255.039,135.168 C255.106,135.06 255.123,134.929 255.087,134.807 C255.004,133.769 254.921,132.727 254.893,131.685 C254.822,130.401 254.846,129.134 254.846,127.866 z M249.945,132.477 C248.428,132.955 246.814,133.034 245.258,132.707 C244.05,132.418 243.436,131.665 243.432,130.603 C243.382,129.899 243.778,129.239 244.422,128.951 C245.238,128.617 246.073,128.33 246.922,128.092 C247.869,127.795 248.828,127.537 249.775,127.236 C250.139,127.121 250.242,127.272 250.246,127.585 C250.246,128.266 250.246,128.943 250.246,129.625 L250.297,129.625 C250.297,130.417 250.297,131.174 250.297,131.947 C250.344,132.19 250.187,132.426 249.945,132.477 z M183.834,133.448 C183.834,131.424 183.834,129.399 183.834,127.371 L183.758,127.371 C183.758,125.833 183.758,124.3 183.758,122.763 C183.739,119.594 181.972,117.478 178.822,116.939 C175.672,116.4 172.558,117.014 169.571,118.163 C169.175,118.31 169.175,118.536 169.317,118.869 C169.714,119.7 170.11,120.532 170.458,121.372 C170.613,121.733 170.799,121.769 171.16,121.658 C172.269,121.341 173.382,121.032 174.511,120.802 C175.571,120.579 176.669,120.607 177.717,120.881 C178.644,121.127 179.182,121.673 179.226,122.375 C179.266,123.017 178.83,123.528 177.946,123.9 C177.773,123.978 177.594,124.043 177.411,124.094 C176.643,124.284 175.878,124.49 175.102,124.645 C173.382,125.005 171.663,125.358 170.09,126.202 C168.727,126.926 167.755,128.217 167.434,129.726 C167.113,131.236 167.476,132.81 168.426,134.027 C169.357,135.215 170.668,135.809 172.079,136.198 C173.748,136.647 175.483,136.803 177.205,136.657 C179.381,136.446 181.529,136.013 183.616,135.366 C183.76,135.345 183.887,135.261 183.964,135.137 C184.04,135.013 184.058,134.862 184.012,134.724 C183.92,134.306 183.861,133.883 183.834,133.456 z M178.881,132.493 C177.36,132.957 175.747,133.031 174.191,132.707 C173.604,132.608 173.08,132.282 172.733,131.8 C172.035,130.738 172.313,129.423 173.477,128.908 C174.464,128.53 175.472,128.211 176.496,127.953 C177.233,127.723 177.982,127.517 178.707,127.248 C179.079,127.109 179.214,127.2 179.218,127.561 C179.218,128.321 179.218,129.082 179.218,129.839 L179.218,129.839 C179.218,130.552 179.218,131.265 179.218,131.974 C179.265,132.212 179.114,132.444 178.877,132.497 z M204.911,122.038 C204.613,120.085 203.663,118.575 201.828,117.708 C199.879,116.785 197.803,116.646 195.695,116.785 C193.223,116.947 190.878,117.668 188.564,118.453 C188.401,118.482 188.257,118.577 188.167,118.716 C188.077,118.855 188.049,119.025 188.089,119.185 C188.172,120.002 188.259,120.826 188.271,121.646 C188.295,123.833 188.271,126.004 188.271,128.203 C188.271,130.691 188.271,133.175 188.271,135.663 C188.271,136.11 188.398,136.285 188.865,136.277 Q190.577,136.241 192.288,136.277 C192.748,136.277 192.89,136.118 192.882,135.667 C192.882,133.844 192.882,132.022 192.882,130.203 C192.882,127.43 192.847,124.692 192.859,121.939 C192.902,121.719 193.05,121.535 193.255,121.444 C194.511,120.933 195.863,120.702 197.217,120.766 C198.964,120.873 200.2,121.919 200.45,123.54 C200.524,124.057 200.559,124.578 200.557,125.1 C200.557,128.587 200.557,132.069 200.557,135.556 C200.557,136.217 200.592,136.249 201.258,136.253 L204.396,136.253 C205.073,136.253 205.085,136.253 205.085,135.56 Q205.085,129.668 205.085,123.777 C205.07,123.195 205.011,122.615 204.911,122.042 z M123.459,131.966 C123.435,129.752 123.459,127.533 123.459,125.318 Q123.459,121.567 123.459,117.815 C123.459,117.228 123.431,117.201 122.837,117.197 L119.497,117.197 C118.879,117.197 118.852,117.228 118.852,117.838 Q118.852,121.709 118.852,125.58 Q118.852,128.547 118.887,131.523 C118.907,131.771 118.736,131.994 118.491,132.038 C117.222,132.546 115.858,132.772 114.493,132.699 C113.63,132.662 112.808,132.314 112.18,131.721 C111.387,130.928 111.197,129.906 111.193,128.84 C111.193,125.184 111.193,121.527 111.193,117.866 C111.193,117.252 111.15,117.205 110.555,117.205 C109.446,117.205 108.337,117.205 107.227,117.205 C107.072,117.165 106.908,117.209 106.792,117.32 C106.677,117.432 106.627,117.595 106.661,117.751 C106.661,121.994 106.625,126.238 106.689,130.481 C106.724,132.858 107.703,134.767 109.977,135.825 C111.438,136.451 113.015,136.759 114.604,136.728 C117.611,136.772 120.452,135.936 123.261,134.973 C123.637,134.843 123.657,134.577 123.614,134.252 C123.558,133.48 123.459,132.723 123.459,131.966 z M276.038,122.755 C276.01,120.208 274.584,118.282 272.191,117.411 C270.46,116.819 268.623,116.602 266.802,116.773 C264.299,116.947 261.922,117.668 259.56,118.456 C259.399,118.489 259.259,118.589 259.175,118.731 C259.091,118.873 259.071,119.044 259.12,119.201 C259.224,120.287 259.323,121.376 259.342,122.466 C259.378,124.447 259.342,126.455 259.342,128.452 Q259.342,132.042 259.342,135.627 C259.342,136.217 259.386,136.265 259.952,136.265 C261.062,136.265 262.171,136.265 263.28,136.265 C263.744,136.265 263.879,136.095 263.875,135.651 C263.875,131.107 263.875,126.558 263.847,122.014 C263.805,121.726 263.994,121.454 264.279,121.392 C265.473,120.961 266.733,120.743 268.003,120.746 C270.047,120.802 271.367,122.022 271.509,124.055 C271.509,124.245 271.509,124.451 271.509,124.625 C271.509,128.298 271.509,131.974 271.509,135.647 C271.509,136.087 271.632,136.277 272.099,136.265 C273.225,136.241 274.35,136.265 275.475,136.265 C275.63,136.305 275.795,136.262 275.912,136.152 C276.028,136.042 276.08,135.88 276.049,135.722 C276.053,131.404 276.085,127.081 276.038,122.759 z M67.443,99.38 C69.82,101.547 72.645,102.336 75.834,101.959 C80.664,101.453 84.427,97.539 84.744,92.693 C84.859,90.91 84.744,89.127 84.744,87.328 L84.835,87.328 C84.835,85.823 84.835,84.317 84.835,82.816 C84.835,82.392 84.712,82.221 84.269,82.233 C83.207,82.257 82.145,82.233 81.099,82.233 C80.441,82.233 80.438,82.233 80.438,82.895 C80.438,85.7 80.438,88.501 80.438,91.306 C80.431,91.939 80.339,92.568 80.164,93.176 C79.281,96.227 76.345,98.164 73.401,97.534 C70.834,96.983 69.214,95.284 68.528,92.78 C67.985,90.799 68.374,88.854 69.012,86.948 C69.206,86.37 69.182,86.31 68.588,86.31 C67.494,86.31 66.401,86.31 65.307,86.31 C65.116,86.276 64.92,86.321 64.764,86.436 C64.607,86.55 64.504,86.724 64.479,86.916 C63.966,88.867 63.847,90.901 64.127,92.899 C64.418,95.386 65.595,97.686 67.443,99.376 z M217.355,85.791 C218.321,85.791 219.284,85.791 220.251,85.791 C221.218,85.791 222.153,85.791 223.099,85.791 C223.965,85.803 224.8,85.468 225.417,84.86 C225.896,84.381 225.889,84.254 225.417,83.786 L224.882,83.287 C224.549,82.958 224.217,82.677 223.773,83.129 C223.712,83.181 223.635,83.21 223.555,83.212 C222.878,83.212 222.196,83.256 221.519,83.24 C221.365,83.195 221.245,83.073 221.202,82.919 C221.169,82.479 221.195,82.036 221.281,81.603 C221.365,81.357 221.565,81.167 221.816,81.096 C222.087,81.063 222.357,81.163 222.541,81.366 C222.79,81.948 223.238,81.916 223.729,81.897 C224.03,81.897 224.332,81.897 224.633,81.897 C225.148,81.897 225.219,81.809 225.144,81.31 C224.862,79.46 223.924,78.628 222.046,78.569 C220.683,78.525 219.569,79.147 219.134,80.351 C218.921,81.027 218.8,81.728 218.773,82.435 C218.71,83.252 218.773,83.267 217.949,83.275 C217.656,83.23 217.382,83.43 217.335,83.723 C217.204,84.226 217.026,84.721 216.883,85.221 C216.741,85.72 216.8,85.787 217.355,85.791 z M74.693,84.713 C74.091,84.713 73.504,84.713 72.886,84.713 C72.768,84.686 72.644,84.72 72.556,84.804 C72.468,84.888 72.429,85.01 72.45,85.129 Q72.45,86.627 72.45,88.121 C72.429,88.239 72.467,88.361 72.552,88.446 C72.638,88.531 72.76,88.568 72.878,88.545 Q74.661,88.545 76.444,88.545 C76.563,88.57 76.687,88.535 76.775,88.451 C76.863,88.367 76.903,88.245 76.884,88.125 Q76.884,86.627 76.884,85.133 C76.904,85.014 76.865,84.893 76.779,84.809 C76.693,84.724 76.57,84.687 76.452,84.71 C75.866,84.721 75.279,84.713 74.693,84.713 z M113.693,102.047 C114.295,102.047 114.882,102.047 115.496,102.047 C115.621,102.065 115.747,102.022 115.835,101.932 C115.923,101.842 115.964,101.715 115.944,101.591 Q115.944,100.169 115.944,98.742 C115.964,98.618 115.923,98.491 115.835,98.401 C115.747,98.311 115.621,98.269 115.496,98.287 Q113.693,98.287 111.887,98.287 C111.762,98.269 111.636,98.311 111.547,98.401 C111.459,98.491 111.419,98.618 111.439,98.742 Q111.439,100.165 111.439,101.591 C111.42,101.715 111.461,101.84 111.549,101.929 C111.637,102.018 111.763,102.06 111.887,102.043 C112.489,102.039 113.091,102.047 113.693,102.047 z M148.197,102.047 C148.799,102.047 149.385,102.047 150.003,102.047 C150.127,102.065 150.253,102.024 150.342,101.936 C150.431,101.848 150.473,101.723 150.455,101.599 Q150.455,100.177 150.455,98.75 C150.476,98.626 150.437,98.499 150.35,98.408 C150.262,98.317 150.136,98.274 150.011,98.291 Q148.209,98.291 146.402,98.291 C146.278,98.27 146.151,98.311 146.061,98.399 C145.971,98.488 145.929,98.614 145.947,98.738 C145.947,99.689 145.947,100.636 145.947,101.587 C145.918,101.722 145.962,101.862 146.062,101.956 C146.163,102.051 146.305,102.086 146.438,102.05 C147.028,102.039 147.626,102.047 148.197,102.047 z M295.233,102.047 C295.851,102.047 296.469,102.047 297.083,102.047 C297.208,102.066 297.336,102.024 297.425,101.934 C297.514,101.844 297.555,101.716 297.535,101.591 Q297.535,100.169 297.535,98.742 C297.554,98.618 297.512,98.491 297.423,98.402 C297.334,98.313 297.208,98.272 297.083,98.291 Q295.276,98.291 293.474,98.291 C293.349,98.274 293.225,98.317 293.137,98.407 C293.05,98.497 293.01,98.623 293.03,98.746 Q293.03,100.169 293.03,101.595 C293.011,101.719 293.052,101.844 293.14,101.933 C293.228,102.022 293.354,102.064 293.478,102.047 C294.064,102.039 294.646,102.047 295.233,102.047 z M118.233,102.047 Q120.016,102.047 121.799,102.047 C121.918,102.068 122.04,102.03 122.125,101.944 C122.21,101.859 122.248,101.737 122.227,101.619 Q122.227,100.169 122.227,98.723 C122.249,98.603 122.21,98.48 122.124,98.395 C122.038,98.309 121.915,98.272 121.795,98.295 C121.209,98.295 120.607,98.295 120.036,98.295 C119.466,98.295 118.848,98.295 118.23,98.295 C118.11,98.271 117.987,98.309 117.902,98.395 C117.816,98.48 117.778,98.603 117.802,98.723 Q117.802,100.173 117.802,101.619 C117.778,101.739 117.816,101.863 117.903,101.949 C117.989,102.035 118.114,102.071 118.233,102.047 z M197.074,98.291 C196.504,98.291 195.933,98.291 195.363,98.291 C194.792,98.291 194.174,98.291 193.556,98.291 C193.43,98.269 193.301,98.309 193.21,98.398 C193.119,98.488 193.077,98.616 193.096,98.742 Q193.096,100.169 193.096,101.595 C193.077,101.721 193.119,101.849 193.21,101.939 C193.301,102.028 193.43,102.069 193.556,102.047 Q195.315,102.047 197.074,102.047 C197.199,102.067 197.327,102.026 197.417,101.937 C197.507,101.848 197.549,101.72 197.53,101.595 Q197.53,100.169 197.53,98.742 C197.548,98.617 197.505,98.49 197.414,98.401 C197.323,98.313 197.195,98.273 197.07,98.295 z M262.48,79.527 Q264.239,79.527 265.998,79.527 C266.125,79.551 266.255,79.511 266.347,79.422 C266.439,79.332 266.482,79.203 266.462,79.076 C266.462,78.125 266.462,77.174 266.462,76.223 C266.491,76.087 266.447,75.945 266.344,75.849 C266.242,75.754 266.097,75.72 265.963,75.76 C265.392,75.76 264.822,75.76 264.251,75.76 C263.681,75.76 263.063,75.76 262.492,75.76 C262.367,75.739 262.239,75.78 262.149,75.869 C262.059,75.959 262.017,76.086 262.036,76.211 Q262.036,77.638 262.036,79.064 C262.012,79.189 262.05,79.317 262.137,79.41 C262.224,79.502 262.35,79.548 262.476,79.531 z" fill-opacity="0" stroke="#000000" stroke-width="0.5"/>
    </g>
  </g>
</svg>
